0
SECTION
2
HEADER
9
$INSUNITS
70
4
9
$ACADVER
1
AC1014
9
$HANDSEED
5
FFFF
0
ENDSEC
0
SECTION
2
TABLES
0
TABLE
2
VPORT
5
8
100
AcDbSymbolTable
0
ENDTAB
0
TABLE
2
LTYPE
5
5
100
AcDbSymbolTable
0
LTYPE
5
14
100
AcDbSymbolTableRecord
100
AcDbLinetypeTableRecord
2
BYBLOCK
70
0
0
LTYPE
5
15
100
AcDbSymbolTableRecord
100
AcDbLinetypeTableRecord
2
BYLAYER
70
0
0
ENDTAB
0
TABLE
2
LAYER
5
2
100
AcDbSymbolTable
70
2
0
LAYER
5
50
100
AcDbSymbolTableRecord
100
AcDbLayerTableRecord
2
0
70
0
6
CONTINUOUS
0
ENDTAB
0
TABLE
2
STYLE
5
3
100
AcDbSymbolTable
70
1
0
STYLE
5
11
100
AcDbSymbolTableRecord
100
AcDbTextStyleTableRecord
2
STANDARD
70
0
0
ENDTAB
0
TABLE
2
VIEW
5
6
100
AcDbSymbolTable
70
0
0
ENDTAB
0
TABLE
2
UCS
5
7
100
AcDbSymbolTable
70
0
0
ENDTAB
0
TABLE
2
APPID
5
9
100
AcDbSymbolTable
70
2
0
APPID
5
12
100
AcDbSymbolTableRecord
100
AcDbRegAppTableRecord
2
ACAD
70
0
0
ENDTAB
0
TABLE
2
DIMSTYLE
5
A
100
AcDbSymbolTable
70
1
0
ENDTAB
0
TABLE
2
BLOCK_RECORD
5
1
100
AcDbSymbolTable
70
1
0
BLOCK_RECORD
5
1F
100
AcDbSymbolTableRecord
100
AcDbBlockTableRecord
2
*MODEL_SPACE
0
BLOCK_RECORD
5
1B
100
AcDbSymbolTableRecord
100
AcDbBlockTableRecord
2
*PAPER_SPACE
0
ENDTAB
0
ENDSEC
0
SECTION
2
BLOCKS
0
BLOCK
5
20
100
AcDbEntity
100
AcDbBlockBegin
2
*MODEL_SPACE
0
ENDBLK
5
21
100
AcDbEntity
100
AcDbBlockEnd
0
BLOCK
5
1C
100
AcDbEntity
100
AcDbBlockBegin
2
*PAPER_SPACE
0
ENDBLK
5
1D
100
AcDbEntity
100
AcDbBlockEnd
0
ENDSEC
0
SECTION
2
ENTITIES
0
LWPOLYLINE
5
100
100
AcDbEntity
8
0
100
AcDbPolyline
90
8
70
1
43
0.0
10
221.59999999999999
20
-35.075000000000003
10
221.60000000000002
20
-22.074999999999999
42
-0.41421356237301959
10
222.10000000000002
20
-21.575000000000006
10
235.10000000000002
20
-21.575000000000017
42
-0.41421356237312362
10
235.60000000000002
20
-22.074999999999999
10
235.60000000000002
20
-35.075000000000003
42
-0.41421356237314444
10
235.10000000000002
20
-35.57500000000001
10
222.10000000000002
20
-35.575000000000017
42
-0.41421356237310025
0
LWPOLYLINE
5
101
100
AcDbEntity
8
0
100
AcDbPolyline
90
8
70
1
43
0.0
10
255.90574999999998
20
-42.125000000000014
10
255.90574999999995
20
-55.125
42
-0.41421356237310542
10
255.40574999999995
20
-55.625
10
249.30575000000007
20
-55.625000000000036
42
-0.41421356237308982
10
248.80575000000005
20
-55.125
10
248.8057500000001
20
-42.124999999999986
42
-0.41421356237309503
10
249.30575000000007
20
-41.625000000000007
10
255.40574999999995
20
-41.625000000000007
42
-0.41421356237309503
0
LWPOLYLINE
5
102
100
AcDbEntity
8
0
100
AcDbPolyline
90
8
70
1
43
0.0
10
126.06250000000001
20
-54.125000000000014
10
126.06250000000001
20
-41.125
42
0.41421356237307422
10
125.5625
20
-40.624999999999993
10
112.56250000000001
20
-40.625
42
0.41421356237308982
10
112.0625
20
-41.125
10
112.0625
20
-54.125000000000014
42
0.41421356237310025
10
112.56250000000001
20
-54.625000000000021
10
125.5625
20
-54.625
42
0.41421356237306384
0
LWPOLYLINE
5
103
100
AcDbEntity
8
0
100
AcDbPolyline
90
8
70
1
43
0.0
10
93.012500000000017
20
-54.125000000000014
10
93.012500000000017
20
-41.125
42
-0.41421356237305862
10
93.512500000000003
20
-40.625
10
106.51250000000003
20
-40.624999999999993
42
-0.4142135623730846
10
107.01250000000002
20
-41.125
10
107.01250000000002
20
-54.125000000000014
42
-0.41421356237311585
10
106.51250000000003
20
-54.625
10
93.512500000000003
20
-54.624999999999993
42
-0.41421356237311063
0
LWPOLYLINE
5
104
100
AcDbEntity
8
0
100
AcDbPolyline
90
8
70
1
43
0.0
10
163.66250000000008
20
-40.624999999999972
42
-0.4142135623730846
10
164.16250000000005
20
-41.125
10
164.16250000000005
20
-54.125000000000014
42
-0.41421356237316787
10
163.66250000000005
20
-54.625
10
150.66249999999999
20
-54.625
42
-0.41421356237310542
10
150.16249999999999
20
-54.125000000000014
10
150.16249999999999
20
-41.125
42
-0.41421356237308982
10
150.66249999999999
20
-40.625
0
LWPOLYLINE
5
105
100
AcDbEntity
8
0
100
AcDbPolyline
90
8
70
1
43
0.0
10
278.46250000000003
20
-35.075000000000003
10
278.46250000000003
20
-22.074999999999999
42
0.41421356237307422
10
277.96249999999998
20
-21.574999999999992
10
264.96249999999998
20
-21.575000000000017
42
0.41421356237312362
10
264.46249999999998
20
-22.074999999999999
10
264.46249999999998
20
-35.075000000000003
42
0.41421356237314444
10
264.96249999999998
20
-35.57500000000001
10
277.96249999999998
20
-35.575000000000031
42
0.4142135623730846
0
LWPOLYLINE
5
106
100
AcDbEntity
8
0
100
AcDbPolyline
90
8
70
1
43
0.0
10
272.68175000000008
20
-55.125
42
0.41421356237312623
10
273.18175000000002
20
-55.625000000000007
10
279.28175000000005
20
-55.624999999999986
42
0.41421356237310025
10
279.78174999999999
20
-55.125
10
279.78174999999999
20
-42.124999999999993
42
0.41421356237309503
10
279.28174999999999
20
-41.625
10
273.18175000000008
20
-41.624999999999957
42
0.41421356237309503
10
272.68175000000002
20
-42.125
0
LWPOLYLINE
5
107
100
AcDbEntity
8
0
100
AcDbPolyline
90
8
70
1
43
0.0
10
188.76249999999999
20
-40.625000000000014
42
0.41421356237312101
10
188.26249999999999
20
-41.125
10
188.26249999999993
20
-54.125000000000014
42
0.41421356237312623
10
188.76249999999999
20
-54.625000000000021
10
201.76249999999999
20
-54.624999999999993
42
0.41421356237312101
10
202.26249999999999
20
-54.125000000000014
10
202.26249999999999
20
-41.125
42
0.41421356237314705
10
201.76249999999999
20
-40.624999999999993
0
LWPOLYLINE
5
108
100
AcDbEntity
8
0
100
AcDbPolyline
90
8
70
1
43
0.0
10
87.46250000000002
20
-54.625
10
74.462500000000006
20
-54.625
42
-0.41421356237311063
10
73.962500000000006
20
-54.125000000000014
10
73.962500000000006
20
-41.125
42
-0.41421356237309503
10
74.462500000000006
20
-40.625
10
87.462500000000034
20
-40.625
42
-0.41421356237305862
10
87.96250000000002
20
-41.125
10
87.96250000000002
20
-54.125000000000014
42
-0.4142135623730846
0
LWPOLYLINE
5
109
100
AcDbEntity
8
0
100
AcDbPolyline
90
8
70
1
43
0.0
10
221.3125
20
-41.125
42
0.41421356237314705
10
220.8125
20
-40.624999999999993
10
207.8125
20
-40.624999999999964
42
0.41421356237304818
10
207.31250000000003
20
-41.125
10
207.31250000000006
20
-54.125000000000014
42
0.41421356237308982
10
207.8125
20
-54.625000000000021
10
220.8125
20
-54.624999999999993
42
0.41421356237312101
10
221.3125
20
-54.125000000000014
0
LWPOLYLINE
5
110
100
AcDbEntity
8
0
100
AcDbPolyline
90
8
70
1
43
0.0
10
23.168749999999999
20
-54.625
42
0.41421356237311063
10
23.668749999999999
20
-54.125000000000014
10
23.668749999999999
20
-41.125
42
0.41421356237310542
10
23.168749999999999
20
-40.625
10
10.168749999999999
20
-40.625
42
0.41421356237307549
10
9.6687499999999993
20
-41.125
10
9.6687500000000028
20
-54.125000000000014
42
0.41421356237310936
10
10.168749999999999
20
-54.625
0
LWPOLYLINE
5
111
100
AcDbEntity
8
0
100
AcDbPolyline
90
8
70
1
43
0.0
10
182.71250000000006
20
-54.625
10
169.71250000000001
20
-54.624999999999993
42
-0.41421356237312101
10
169.21250000000001
20
-54.125000000000014
10
169.21250000000001
20
-41.125
42
-0.41421356237313667
10
169.71250000000001
20
-40.625
10
182.71250000000006
20
-40.625
42
-0.414213562373069
10
183.21250000000003
20
-41.125
10
183.21250000000006
20
-54.125000000000014
42
-0.41421356237309503
0
LWPOLYLINE
5
112
100
AcDbEntity
8
0
100
AcDbPolyline
90
8
70
1
43
0.0
10
36.362499999999997
20
-40.625
42
0.4142135623730846
10
35.862500000000011
20
-41.125
10
35.862499999999997
20
-54.125000000000014
42
0.41421356237308204
10
36.362499999999997
20
-54.625
10
49.362500000000004
20
-54.625
42
0.41421356237311063
10
49.862499999999997
20
-54.125000000000014
10
49.862499999999997
20
-41.125
42
0.41421356237309503
10
49.362500000000004
20
-40.625
0
LWPOLYLINE
5
113
100
AcDbEntity
8
0
100
AcDbPolyline
90
8
70
1
43
0.0
10
55.412500000000016
20
-40.625
42
0.41421356237307944
10
54.912500000000009
20
-41.125
10
54.912500000000009
20
-54.125000000000014
42
0.41421356237309503
10
55.412500000000016
20
-54.625
10
68.412499999999994
20
-54.625
42
0.41421356237311063
10
68.912499999999994
20
-54.125000000000014
10
68.912499999999994
20
-41.125
42
0.41421356237309503
10
68.412499999999994
20
-40.625
0
LWPOLYLINE
5
114
100
AcDbEntity
8
0
100
AcDbPolyline
90
8
70
1
43
0.0
10
131.61250000000001
20
-40.625
10
144.61250000000001
20
-40.625
42
-0.414213562373069
10
145.11250000000001
20
-41.125
10
145.11250000000001
20
-54.125000000000014
42
-0.4142135623730846
10
144.61250000000001
20
-54.625
10
131.61250000000001
20
-54.625
42
-0.41421356237310542
10
131.11250000000001
20
-54.125000000000014
10
131.11250000000001
20
-41.125
42
-0.41421356237308982
0
LWPOLYLINE
5
115
100
AcDbEntity
8
0
100
AcDbPolyline
90
8
70
1
43
0.0
10
45.387500000000003
20
-73.174999999999983
10
45.387500000000003
20
-60.174999999999997
42
-0.4142135623730846
10
45.887500000000003
20
-59.675000000000004
10
58.887500000000017
20
-59.675000000000004
42
-0.41421356237311063
10
59.387500000000003
20
-60.174999999999997
10
59.387500000000003
20
-73.174999999999983
42
-0.41421356237311063
10
58.887500000000017
20
-73.674999999999983
10
45.887500000000003
20
-73.674999999999983
42
-0.41421356237309503
0
LWPOLYLINE
5
116
100
AcDbEntity
8
0
100
AcDbPolyline
90
8
70
1
43
0.0
10
77.9375
20
-73.674999999999983
10
64.9375
20
-73.674999999999983
42
-0.41421356237310542
10
64.4375
20
-73.174999999999983
10
64.4375
20
-60.174999999999997
42
-0.41421356237310542
10
64.9375
20
-59.675000000000004
10
77.9375
20
-59.675000000000004
42
-0.41421356237309503
10
78.4375
20
-60.174999999999997
10
78.4375
20
-73.174999999999983
42
-0.4142135623730846
0
LWPOLYLINE
5
117
100
AcDbEntity
8
0
100
AcDbPolyline
90
8
70
1
43
0.0
10
121.58750000000001
20
-60.174999999999997
42
-0.41421356237310542
10
122.08750000000002
20
-59.675000000000004
10
135.08750000000001
20
-59.674999999999997
42
-0.41421356237309503
10
135.58750000000001
20
-60.174999999999997
10
135.58750000000001
20
-73.174999999999983
42
-0.41421356237307422
10
135.08750000000001
20
-73.674999999999983
10
122.08750000000002
20
-73.674999999999997
42
-0.41421356237311585
10
121.58750000000001
20
-73.174999999999983
0
LWPOLYLINE
5
118
100
AcDbEntity
8
0
100
AcDbPolyline
90
8
70
1
43
0.0
10
226.86250000000001
20
-40.624999999999964
42
0.41421356237304818
10
226.36250000000004
20
-41.125
10
226.36250000000007
20
-54.125000000000014
42
0.41421356237308982
10
226.86250000000001
20
-54.625000000000021
10
239.86250000000001
20
-54.624999999999993
42
0.41421356237312101
10
240.36250000000001
20
-54.125000000000014
10
240.36250000000001
20
-41.125
42
0.41421356237314705
10
239.86250000000001
20
-40.624999999999993
0
LWPOLYLINE
5
119
100
AcDbEntity
8
0
100
AcDbPolyline
90
8
70
1
43
0.0
10
13.01825
20
-74.175000000000026
10
13.018249999999995
20
-61.17499999999999
42
0.41421356237309503
10
12.518250000000005
20
-60.674999999999997
10
6.41825000000002
20
-60.67499999999999
42
0.41421356237309503
10
5.9182500000000076
20
-61.175000000000004
10
5.9182500000000022
20
-74.175000000000026
42
0.41421356237307422
10
6.4182499999999916
20
-74.674999999999983
10
12.518250000000011
20
-74.674999999999983
42
0.41421356237307422
0
LWPOLYLINE
5
120
100
AcDbEntity
8
0
100
AcDbPolyline
90
8
70
1
43
0.0
10
140.63749999999999
20
-60.174999999999997
10
140.63749999999999
20
-73.174999999999983
42
0.41421356237311063
10
141.13749999999999
20
-73.67500000000004
10
154.13749999999999
20
-73.674999999999983
42
0.41421356237308982
10
154.63750000000005
20
-73.174999999999983
10
154.63750000000005
20
-60.174999999999997
42
0.41421356237308982
10
154.13749999999999
20
-59.675000000000004
10
141.13749999999999
20
-59.674999999999997
42
0.41421356237311585
0
LWPOLYLINE
5
121
100
AcDbEntity
8
0
100
AcDbPolyline
90
8
70
1
43
0.0
10
257.81875000000002
20
-40.624999999999972
42
0.4142135623730846
10
257.31875000000002
20
-41.125
10
257.31875000000002
20
-54.125000000000014
42
0.41421356237314705
10
257.81875000000002
20
-54.625000000000021
10
270.81875000000002
20
-54.625
42
0.41421356237312623
10
271.31875000000002
20
-54.125000000000014
10
271.31875000000008
20
-41.125
42
0.41421356237312101
10
270.81875000000002
20
-40.624999999999993
0
LWPOLYLINE
5
122
100
AcDbEntity
8
0
100
AcDbPolyline
90
8
70
1
43
0.0
10
27.931249999999999
20
-59.675000000000004
10
14.93125
20
-59.675000000000011
42
0.41421356237309764
10
14.431250000000002
20
-60.174999999999997
10
14.431249999999999
20
-73.174999999999983
42
0.41421356237309764
10
14.93125
20
-73.674999999999983
10
27.931249999999999
20
-73.674999999999983
42
0.41421356237308982
10
28.431250000000002
20
-73.174999999999983
10
28.431250000000002
20
-60.174999999999997
42
0.41421356237309764
0
LWPOLYLINE
5
123
100
AcDbEntity
8
0
100
AcDbPolyline
90
8
70
1
43
0.0
10
211.78750000000002
20
-73.174999999999983
10
211.78750000000002
20
-60.174999999999997
42
0.41421356237314189
10
211.28749999999999
20
-59.675000000000004
10
198.28749999999999
20
-59.674999999999997
42
0.41421356237307422
10
197.78750000000002
20
-60.174999999999997
10
197.78750000000002
20
-73.174999999999983
42
0.41421356237306384
10
198.28749999999999
20
-73.67500000000004
10
211.28749999999999
20
-73.675000000000011
42
0.41421356237310025
0
LWPOLYLINE
5
124
100
AcDbEntity
8
0
100
AcDbPolyline
90
8
70
1
43
0.0
10
45.100000000000009
20
-79.22499999999998
10
45.099999999999994
20
-92.224999999999994
42
-0.41421356237310025
10
44.600000000000001
20
-92.725000000000023
10
31.600000000000001
20
-92.724999999999994
42
-0.41421356237305601
10
31.100000000000001
20
-92.224999999999994
10
31.100000000000009
20
-79.22499999999998
42
-0.41421356237309764
10
31.600000000000001
20
-78.724999999999994
10
44.600000000000001
20
-78.724999999999994
42
-0.41421356237307944
0
LWPOLYLINE
5
125
100
AcDbEntity
8
0
100
AcDbPolyline
90
8
70
1
43
0.0
10
97.487500000000011
20
-73.174999999999983
10
97.487500000000011
20
-60.174999999999997
42
0.41421356237310542
10
96.987500000000011
20
-59.675000000000004
10
83.987499999999983
20
-59.674999999999997
42
0.41421356237310542
10
83.487499999999983
20
-60.174999999999997
10
83.487499999999983
20
-73.174999999999983
42
0.41421356237312623
10
83.987499999999983
20
-73.67500000000004
10
96.987500000000011
20
-73.674999999999997
42
0.41421356237311585
0
LWPOLYLINE
5
126
100
AcDbEntity
8
0
100
AcDbPolyline
90
8
70
1
43
0.0
10
30.294250000000027
20
-60.67499999999999
42
0.41421356237309503
10
29.794250000000009
20
-61.175000000000004
10
29.794250000000009
20
-74.175000000000026
42
0.41421356237307422
10
30.294249999999998
20
-74.674999999999983
10
36.394250000000021
20
-74.674999999999983
42
0.41421356237307422
10
36.89425
20
-74.175000000000026
10
36.894250000000007
20
-61.175000000000004
42
0.41421356237309503
10
36.39425
20
-60.674999999999997
0
LWPOLYLINE
5
127
100
AcDbEntity
8
0
100
AcDbPolyline
90
8
70
1
43
0.0
10
173.1875
20
-59.675000000000004
42
-0.41421356237313145
10
173.68750000000003
20
-60.174999999999997
10
173.6875
20
-73.174999999999983
42
-0.4142135623730222
10
173.1875
20
-73.674999999999983
10
160.18749999999997
20
-73.674999999999983
42
-0.41421356237310542
10
159.6875
20
-73.174999999999983
10
159.6875
20
-60.174999999999997
42
-0.41421356237309503
10
160.1875
20
-59.675000000000004
0
LWPOLYLINE
5
128
100
AcDbEntity
8
0
100
AcDbPolyline
90
8
70
1
43
0.0
10
103.03750000000001
20
-73.67500000000004
10
116.03749999999999
20
-73.674999999999997
42
0.41421356237309503
10
116.53750000000001
20
-73.174999999999983
10
116.53749999999999
20
-60.174999999999997
42
0.41421356237307422
10
116.03749999999999
20
-59.675000000000004
10
103.03750000000001
20
-59.674999999999997
42
0.41421356237311585
10
102.53749999999999
20
-60.174999999999997
10
102.53749999999999
20
-73.174999999999983
42
0.41421356237311063
0
LWPOLYLINE
5
129
100
AcDbEntity
8
0
100
AcDbPolyline
90
8
70
1
43
0.0
10
192.23750000000001
20
-59.675000000000018
42
-0.41421356237310025
10
192.73750000000007
20
-60.174999999999997
10
192.73750000000007
20
-73.174999999999983
42
-0.41421356237310025
10
192.23750000000001
20
-73.674999999999983
10
179.23750000000001
20
-73.675000000000011
42
-0.41421356237310025
10
178.73750000000001
20
-73.174999999999983
10
178.73750000000001
20
-60.174999999999997
42
-0.41421356237314189
10
179.23750000000001
20
-59.675000000000004
0
LWPOLYLINE
5
130
100
AcDbEntity
8
0
100
AcDbPolyline
90
8
70
1
43
0.0
10
21.287500000000001
20
-79.22499999999998
10
21.287499999999998
20
-92.224999999999994
42
-0.41421356237309764
10
20.787500000000001
20
-92.725000000000023
10
7.7875000000000005
20
-92.725000000000023
42
-0.41421356237310281
10
7.2874999999999988
20
-92.224999999999994
10
7.2874999999999979
20
-79.224999999999994
42
-0.41421356237309764
10
7.7875000000000005
20
-78.724999999999994
10
20.787500000000001
20
-78.724999999999994
42
-0.41421356237308204
0
LWPOLYLINE
5
131
100
AcDbEntity
8
0
100
AcDbPolyline
90
8
70
1
43
0.0
10
54.912500000000009
20
-92.224999999999994
42
0.41421356237310542
10
55.412500000000016
20
-92.725000000000023
10
68.412499999999994
20
-92.725000000000009
42
0.41421356237310542
10
68.912500000000009
20
-92.224999999999994
10
68.912499999999994
20
-79.22499999999998
42
0.41421356237309503
10
68.412499999999994
20
-78.724999999999994
10
55.412500000000016
20
-78.724999999999994
42
0.41421356237307944
10
54.912500000000009
20
-79.22499999999998
0
LWPOLYLINE
5
132
100
AcDbEntity
8
0
100
AcDbPolyline
90
8
70
1
43
0.0
10
149.375
20
-92.725000000000023
10
136.375
20
-92.724999999999994
42
-0.41421356237304302
10
135.875
20
-92.224999999999994
10
135.875
20
-79.22499999999998
42
-0.414213562373069
10
136.375
20
-78.724999999999994
10
149.375
20
-78.724999999999994
42
-0.41421356237308982
10
149.875
20
-79.22499999999998
10
149.875
20
-92.224999999999994
42
-0.41421356237311585
0
LWPOLYLINE
5
133
100
AcDbEntity
8
0
100
AcDbPolyline
90
8
70
1
43
0.0
10
230.33750000000001
20
-73.674999999999969
42
0.41421356237310025
10
230.83750000000006
20
-73.174999999999983
10
230.83750000000009
20
-60.174999999999997
42
0.41421356237310025
10
230.33750000000001
20
-59.675000000000004
10
217.33750000000001
20
-59.674999999999997
42
0.41421356237307422
10
216.83750000000003
20
-60.174999999999997
10
216.83750000000003
20
-73.174999999999983
42
0.41421356237306384
10
217.33750000000001
20
-73.67500000000004
0
LWPOLYLINE
5
134
100
AcDbEntity
8
0
100
AcDbPolyline
90
8
70
1
43
0.0
10
264.46249999999998
20
-79.22499999999998
10
264.46249999999998
20
-92.224999999999994
42
0.41421356237311585
10
264.96249999999998
20
-92.725000000000023
10
277.96249999999998
20
-92.725000000000023
42
0.4142135623730846
10
278.46250000000003
20
-92.224999999999994
10
278.46250000000003
20
-79.22499999999998
42
0.41421356237311063
10
277.96249999999998
20
-78.724999999999994
10
264.96250000000003
20
-78.724999999999966
42
0.41421356237310542
0
LWPOLYLINE
5
135
100
AcDbEntity
8
0
100
AcDbPolyline
90
8
70
1
43
0.0
10
82.649999999999991
20
-77.724999999999966
42
0.41421356237309503
10
82.149999999999977
20
-78.22499999999998
10
82.150000000000006
20
-91.225000000000009
42
0.41421356237309503
10
82.65000000000002
20
-91.725000000000023
10
88.749999999999943
20
-91.725000000000051
42
0.41421356237309503
10
89.249999999999986
20
-91.225000000000009
10
89.249999999999972
20
-78.22499999999998
42
0.4142135623730846
10
88.749999999999972
20
-77.72499999999998
0
LWPOLYLINE
5
136
100
AcDbEntity
8
0
100
AcDbPolyline
90
16
70
1
43
0.0
10
285.99999360740185
20
-54.874850581646648
10
286.00000426173216
20
-1.5000000000000036
42
0.41421356237308493
10
284.50000426173222
20
-1.4155343563970746e-14
10
1.4999999664723873
20
0
42
0.41421354927974796
10
0
20
-1.4999999664723873
10
0
20
-54.875
10
3.75
20
-54.875
42
-0.99999999999999989
10
3.75
20
-59.375000000000007
10
0
20
-59.375000000000007
10
5.5511151231257827e-16
20
-93.75
42
0.41421356237309431
10
1.4999999999999858
20
-95.25
10
284.50000426173222
20
-95.249999999999972
42
0.41421356237309159
10
286.00000426173216
20
-93.75
10
285.99999360740185
20
-59.375149418353359
10
282.25000426173216
20
-59.375149418353359
42
-0.99999999999999989
10
282.25000426173216
20
-54.874850581646648
0
LWPOLYLINE
5
137
100
AcDbEntity
8
0
100
AcDbPolyline
90
8
70
1
43
0.0
10
241.15000000000006
20
-78.724999999999994
42
0.414213562373069
10
240.65000000000001
20
-79.22499999999998
10
240.65000000000003
20
-92.224999999999994
42
0.4142135623730534
10
241.15000000000006
20
-92.725000000000023
10
254.15000000000006
20
-92.725000000000009
42
0.41421356237307422
10
254.65000000000003
20
-92.224999999999994
10
254.65000000000001
20
-79.22499999999998
42
0.4142135623730846
10
254.15000000000006
20
-78.724999999999994
0
LWPOLYLINE
5
138
100
AcDbEntity
8
0
100
AcDbPolyline
90
8
70
1
43
0.0
10
230.33750000000003
20
-92.725000000000023
42
0.41421356237306384
10
230.83750000000006
20
-92.224999999999994
10
230.83750000000006
20
-79.22499999999998
42
0.41421356237311063
10
230.33750000000001
20
-78.724999999999994
10
217.33750000000001
20
-78.724999999999952
42
0.41421356237304818
10
216.83750000000003
20
-79.22499999999998
10
216.83750000000006
20
-92.224999999999994
42
0.41421356237306384
10
217.33750000000001
20
-92.725000000000023
0
LWPOLYLINE
5
139
100
AcDbEntity
8
0
100
AcDbPolyline
90
8
70
1
43
0.0
10
196.45000000000007
20
-78.22499999999998
10
196.45000000000007
20
-91.224999999999994
42
0.41421356237309503
10
196.9500000000001
20
-91.725000000000023
10
203.04999999999995
20
-91.725000000000023
42
0.41421356237309503
10
203.55000000000001
20
-91.224999999999994
10
203.54999999999995
20
-78.22499999999998
42
0.41421356237310542
10
203.05000000000001
20
-77.72499999999998
10
196.9500000000001
20
-77.724999999999937
42
0.41421356237309503
0
LWPOLYLINE
5
140
100
AcDbEntity
8
0
100
AcDbPolyline
90
8
70
1
43
0.0
10
60.174999999999997
20
-2.524999999999999
42
0.41421356237309664
10
59.675000000000004
20
-3.0249999999999999
10
59.675000000000011
20
-16.024999999999999
42
0.41421356237309764
10
60.174999999999997
20
-16.524999999999999
10
73.174999999999983
20
-16.525000000000002
42
0.41421356237309764
10
73.674999999999983
20
-16.024999999999999
10
73.674999999999983
20
-3.0249999999999999
42
0.41421356237309698
10
73.174999999999983
20
-2.5250000000000017
0
LWPOLYLINE
5
141
100
AcDbEntity
8
0
100
AcDbPolyline
90
8
70
1
43
0.0
10
111.77500000000002
20
-16.024999999999999
10
111.77500000000002
20
-3.0249999999999999
42
0.41421356237309437
10
111.27500000000001
20
-2.5249999999999928
10
98.275000000000006
20
-2.5250000000000021
42
0.41421356237312074
10
97.77500000000002
20
-3.0249999999999999
10
97.775000000000006
20
-16.024999999999999
42
0.41421356237305862
10
98.275000000000006
20
-16.525000000000006
10
111.27500000000001
20
-16.524999999999988
42
0.41421356237310414
0
LWPOLYLINE
5
142
100
AcDbEntity
8
0
100
AcDbPolyline
90
8
70
1
43
0.0
10
193.52500000000006
20
-16.525000000000006
10
206.52500000000003
20
-16.524999999999984
42
0.41421356237312235
10
207.02500000000003
20
-16.024999999999999
10
207.02499999999998
20
-3.0249999999999999
42
0.41421356237308493
10
206.52500000000003
20
-2.5249999999999928
10
193.52500000000006
20
-2.5250000000000146
42
0.41421356237312396
10
193.02500000000006
20
-3.0249999999999999
10
193.02500000000003
20
-16.024999999999999
42
0.41421356237312362
0
LWPOLYLINE
5
143
100
AcDbEntity
8
0
100
AcDbPolyline
90
8
70
1
43
0.0
10
92.725000000000023
20
-16.024999999999999
10
92.724999999999994
20
-3.0249999999999999
42
0.41421356237310281
10
92.224999999999994
20
-2.5249999999999928
10
79.224999999999994
20
-2.5249999999999972
42
0.41421356237309764
10
78.724999999999994
20
-3.0249999999999999
10
78.724999999999994
20
-16.024999999999999
42
0.41421356237307422
10
79.22499999999998
20
-16.524999999999999
10
92.224999999999994
20
-16.524999999999995
42
0.41421356237309892
0
LWPOLYLINE
5
144
100
AcDbEntity
8
0
100
AcDbPolyline
90
8
70
1
43
0.0
10
117.32500000000002
20
-16.524999999999995
42
-0.41421356237311974
10
116.82500000000003
20
-16.024999999999999
10
116.82500000000003
20
-3.0249999999999999
42
-0.41421356237305701
10
117.32500000000002
20
-2.5249999999999999
10
130.32499999999999
20
-2.5250000000000106
42
-0.41421356237310542
10
130.82499999999999
20
-3.0249999999999999
10
130.82499999999999
20
-16.024999999999999
42
-0.41421356237309243
10
130.32499999999999
20
-16.525000000000002
0
LWPOLYLINE
5
145
100
AcDbEntity
8
0
100
AcDbPolyline
90
8
70
1
43
0.0
10
149.375
20
-2.5250000000000106
42
-0.41421356237310542
10
149.875
20
-3.0249999999999999
10
149.875
20
-16.024999999999999
42
-0.41421356237309243
10
149.375
20
-16.525000000000002
10
136.375
20
-16.525000000000006
42
-0.41421356237307294
10
135.875
20
-16.024999999999999
10
135.875
20
-3.0249999999999999
42
-0.41421356237307227
10
136.375
20
-2.5249999999999999
0
LWPOLYLINE
5
146
100
AcDbEntity
8
0
100
AcDbPolyline
90
8
70
1
43
0.0
10
212.57499999999999
20
-2.5249999999999999
10
225.57500000000002
20
-2.5249999999999835
42
-0.41421356237310053
10
226.07500000000002
20
-3.0249999999999999
10
226.07499999999999
20
-16.024999999999999
42
-0.41421356237314577
10
225.57500000000002
20
-16.525000000000002
10
212.57499999999999
20
-16.524999999999984
42
-0.41421356237312235
10
212.07499999999999
20
-16.024999999999999
10
212.07499999999996
20
-3.0249999999999999
42
-0.41421356237312101
0
LWPOLYLINE
5
147
100
AcDbEntity
8
0
100
AcDbPolyline
90
8
70
1
43
0.0
10
2.5249999999999999
20
-16.024999999999999
10
2.5249999999999999
20
-3.0249999999999999
42
-0.41421356237309437
10
3.0249999999999999
20
-2.5249999999999999
10
16.024999999999999
20
-2.5249999999999995
42
-0.4142135623730937
10
16.525000000000002
20
-3.0249999999999999
10
16.525000000000002
20
-16.024999999999999
42
-0.4142135623730937
10
16.024999999999999
20
-16.525000000000002
10
3.0249999999999999
20
-16.524999999999999
42
-0.4142135623730957
0
LWPOLYLINE
5
148
100
AcDbEntity
8
0
100
AcDbPolyline
90
8
70
1
43
0.0
10
54.625
20
-3.0249999999999999
42
0.41421356237310902
10
54.125000000000014
20
-2.5250000000000017
10
41.125000000000007
20
-2.5249999999999972
42
0.41421356237309764
10
40.625
20
-3.0249999999999999
10
40.625
20
-16.024999999999999
42
0.41421356237307422
10
41.125
20
-16.524999999999999
10
54.125000000000014
20
-16.525000000000002
42
0.41421356237310281
10
54.625
20
-16.024999999999999
0
LWPOLYLINE
5
149
100
AcDbEntity
8
0
100
AcDbPolyline
90
8
70
1
43
0.0
10
173.97500000000002
20
-16.024999999999999
42
0.41421356237312362
10
174.47500000000005
20
-16.525000000000006
10
187.47499999999999
20
-16.525000000000013
42
0.41421356237309892
10
187.97499999999999
20
-16.024999999999999
10
187.97499999999999
20
-3.0249999999999999
42
0.41421356237314544
10
187.47499999999999
20
-2.5249999999999928
10
174.47500000000005
20
-2.5250000000000146
42
0.41421356237312396
10
173.97500000000005
20
-3.0249999999999999
0
LWPOLYLINE
5
150
100
AcDbEntity
8
0
100
AcDbPolyline
90
8
70
1
43
0.0
10
21.575000000000006
20
-3.0249999999999999
10
21.575000000000006
20
-16.024999999999999
42
0.41421356237310281
10
22.074999999999999
20
-16.524999999999999
10
35.075000000000003
20
-16.525000000000002
42
0.41421356237309631
10
35.57500000000001
20
-16.024999999999999
10
35.57500000000001
20
-3.0249999999999999
42
0.41421356237309537
10
35.075000000000003
20
-2.5250000000000017
10
22.074999999999999
20
-2.5250000000000004
42
0.41421356237308787
0
LWPOLYLINE
5
151
100
AcDbEntity
8
0
100
AcDbPolyline
90
8
70
1
43
0.0
10
20.787500000000001
20
-21.575000000000006
42
-0.41421356237310281
10
21.287500000000001
20
-22.074999999999999
10
21.287500000000005
20
-35.075000000000003
42
-0.41421356237309243
10
20.787500000000001
20
-35.57500000000001
10
7.7875000000000005
20
-35.575000000000003
42
-0.4142135623730937
10
7.2874999999999988
20
-35.075000000000003
10
7.2874999999999979
20
-22.074999999999999
42
-0.41421356237309503
10
7.7875000000000005
20
-21.575000000000006
0
LWPOLYLINE
5
152
100
AcDbEntity
8
0
100
AcDbPolyline
90
8
70
1
43
0.0
10
231.12499999999997
20
-16.024999999999999
42
0.41421356237312362
10
231.625
20
-16.525000000000006
10
244.62500000000006
20
-16.525000000000006
42
0.41421356237307422
10
245.12500000000003
20
-16.024999999999999
10
245.125
20
-3.0249999999999999
42
0.41421356237308493
10
244.62500000000006
20
-2.5249999999999928
10
231.625
20
-2.5250000000000146
42
0.41421356237312396
10
231.125
20
-3.0249999999999999
0
LWPOLYLINE
5
153
100
AcDbEntity
8
0
100
AcDbPolyline
90
8
70
1
43
0.0
10
282.72500000000002
20
-16.52500000000002
42
0.41421356237310153
10
283.22500000000002
20
-16.024999999999999
10
283.22500000000002
20
-3.0249999999999999
42
0.41421356237314544
10
282.72500000000002
20
-2.5249999999999928
10
269.72500000000002
20
-2.5250000000000146
42
0.41421356237312396
10
269.22500000000002
20
-3.0249999999999999
10
269.22500000000002
20
-16.024999999999999
42
0.41421356237312362
10
269.72500000000002
20
-16.525000000000006
0
LWPOLYLINE
5
154
100
AcDbEntity
8
0
100
AcDbPolyline
90
8
70
1
43
0.0
10
69.200000000000003
20
-22.074999999999999
10
69.200000000000017
20
-35.075000000000003
42
0.41421356237309243
10
69.700000000000003
20
-35.57500000000001
10
82.700000000000017
20
-35.575000000000017
42
0.41421356237308721
10
83.200000000000003
20
-35.075000000000003
10
83.200000000000017
20
-22.074999999999999
42
0.41421356237307422
10
82.700000000000017
20
-21.574999999999992
10
69.700000000000003
20
-21.575000000000006
42
0.41421356237309243
0
LWPOLYLINE
5
155
100
AcDbEntity
8
0
100
AcDbPolyline
90
8
70
1
43
0.0
10
168.92500000000001
20
-16.024999999999999
10
168.92500000000001
20
-3.0249999999999999
42
0.41421356237310153
10
168.42500000000001
20
-2.5249999999999928
10
155.42500000000001
20
-2.5249999999999915
42
0.41421356237307488
10
154.92500000000001
20
-3.0249999999999999
10
154.92500000000001
20
-16.024999999999999
42
0.41421356237307549
10
155.42500000000001
20
-16.525000000000006
10
168.42500000000001
20
-16.524999999999984
42
0.41421356237312362
0
LWPOLYLINE
5
156
100
AcDbEntity
8
0
100
AcDbPolyline
90
8
70
1
43
0.0
10
88.250000000000014
20
-35.075000000000003
42
0.41421356237306123
10
88.75
20
-35.57500000000001
10
101.75
20
-35.575000000000003
42
0.41421356237309243
10
102.25000000000001
20
-35.075000000000003
10
102.25000000000001
20
-22.074999999999999
42
0.41421356237309503
10
101.75
20
-21.574999999999992
10
88.75
20
-21.57500000000001
42
0.41421356237313667
10
88.250000000000014
20
-22.074999999999999
0
LWPOLYLINE
5
157
100
AcDbEntity
8
0
100
AcDbPolyline
90
8
70
1
43
0.0
10
250.17500000000001
20
-16.024999999999999
10
250.17499999999998
20
-3.0249999999999999
42
-0.41421356237312101
10
250.67500000000001
20
-2.5249999999999999
10
263.67500000000001
20
-2.5249999999999946
42
-0.41421356237307327
10
264.17500000000007
20
-3.0249999999999999
10
264.17500000000007
20
-16.024999999999999
42
-0.41421356237310542
10
263.67500000000001
20
-16.525000000000002
10
250.67500000000001
20
-16.524999999999984
42
-0.41421356237312235
0
LWPOLYLINE
5
158
100
AcDbEntity
8
0
100
AcDbPolyline
90
8
70
1
43
0.0
10
126.35000000000004
20
-22.074999999999999
10
126.34999999999999
20
-35.075000000000003
42
0.41421356237307161
10
126.85000000000001
20
-35.57500000000001
10
139.84999999999999
20
-35.575000000000003
42
0.41421356237309243
10
140.34999999999999
20
-35.075000000000003
10
140.34999999999999
20
-22.074999999999999
42
0.41421356237309503
10
139.84999999999999
20
-21.574999999999992
10
126.85000000000002
20
-21.575000000000003
42
0.41421356237308982
0
LWPOLYLINE
5
159
100
AcDbEntity
8
0
100
AcDbPolyline
90
8
70
1
43
0.0
10
202.55000000000001
20
-35.075000000000003
42
0.41421356237307422
10
203.05000000000007
20
-35.57500000000001
10
216.05000000000004
20
-35.575000000000017
42
0.41421356237310025
10
216.55000000000004
20
-35.075000000000003
10
216.54999999999998
20
-22.074999999999999
42
0.41421356237308721
10
216.05000000000004
20
-21.574999999999992
10
203.05000000000007
20
-21.574999999999989
42
0.41421356237307683
10
202.55000000000001
20
-22.074999999999999
0
LWPOLYLINE
5
160
100
AcDbEntity
8
0
100
AcDbPolyline
90
8
70
1
43
0.0
10
159.40000000000001
20
-22.074999999999999
42
0.41421356237309503
10
158.90000000000001
20
-21.574999999999992
10
145.90000000000001
20
-21.575000000000003
42
0.41421356237307944
10
145.40000000000003
20
-22.074999999999999
10
145.40000000000001
20
-35.075000000000003
42
0.41421356237307161
10
145.90000000000001
20
-35.57500000000001
10
158.90000000000001
20
-35.575000000000003
42
0.41421356237309243
10
159.40000000000001
20
-35.075000000000003
0
LWPOLYLINE
5
161
100
AcDbEntity
8
0
100
AcDbPolyline
90
8
70
1
43
0.0
10
241.15000000000006
20
-21.574999999999989
42
0.41421356237307683
10
240.65000000000001
20
-22.074999999999999
10
240.65000000000003
20
-35.075000000000003
42
0.4142135623730846
10
241.15000000000006
20
-35.57500000000001
10
254.15000000000006
20
-35.575000000000038
42
0.41421356237305079
10
254.65000000000003
20
-35.075000000000003
10
254.65000000000001
20
-22.074999999999999
42
0.41421356237308721
10
254.15000000000006
20
-21.574999999999992
0
LWPOLYLINE
5
162
100
AcDbEntity
8
0
100
AcDbPolyline
90
8
70
1
43
0.0
10
31.600000000000001
20
-21.575000000000006
42
0.41421356237310281
10
31.100000000000001
20
-22.074999999999999
10
31.099999999999998
20
-35.075000000000003
42
0.41421356237309243
10
31.600000000000001
20
-35.57500000000001
10
44.600000000000001
20
-35.57500000000001
42
0.41421356237309503
10
45.100000000000009
20
-35.075000000000003
10
45.099999999999994
20
-22.074999999999999
42
0.41421356237308982
10
44.600000000000001
20
-21.575000000000006
0
LWPOLYLINE
5
163
100
AcDbEntity
8
0
100
AcDbPolyline
90
8
70
1
43
0.0
10
164.44999999999999
20
-35.075000000000003
42
0.41421356237307422
10
164.95000000000005
20
-35.57500000000001
10
177.94999999999999
20
-35.575000000000017
42
0.41421356237309764
10
178.44999999999999
20
-35.075000000000003
10
178.44999999999999
20
-22.074999999999999
42
0.41421356237314444
10
177.94999999999999
20
-21.574999999999992
10
164.95000000000005
20
-21.574999999999989
42
0.41421356237307683
10
164.44999999999999
20
-22.074999999999999
0
LWPOLYLINE
5
164
100
AcDbEntity
8
0
100
AcDbPolyline
90
8
70
1
43
0.0
10
50.150000000000013
20
-22.074999999999999
10
50.15000000000002
20
-35.075000000000003
42
0.41421356237309243
10
50.650000000000013
20
-35.57500000000001
10
63.65000000000002
20
-35.57500000000001
42
0.41421356237309503
10
64.150000000000006
20
-35.075000000000003
10
64.150000000000006
20
-22.074999999999999
42
0.41421356237307944
10
63.65000000000002
20
-21.575000000000006
10
50.650000000000013
20
-21.575000000000006
42
0.41421356237309243
0
LWPOLYLINE
5
165
100
AcDbEntity
8
0
100
AcDbPolyline
90
8
70
1
43
0.0
10
107.80000000000001
20
-35.57500000000001
10
120.8
20
-35.575000000000017
42
0.41421356237308721
10
121.29999999999998
20
-35.075000000000003
10
121.30000000000001
20
-22.074999999999999
42
0.41421356237307422
10
120.8
20
-21.574999999999992
10
107.80000000000001
20
-21.575000000000003
42
0.41421356237311063
10
107.30000000000001
20
-22.074999999999999
10
107.30000000000001
20
-35.075000000000003
42
0.41421356237309243
0
LWPOLYLINE
5
166
100
AcDbEntity
8
0
100
AcDbPolyline
90
8
70
1
43
0.0
10
197.50000000000003
20
-22.074999999999999
42
0.41421356237310281
10
197.00000000000003
20
-21.574999999999992
10
184.00000000000003
20
-21.575000000000017
42
0.41421356237312362
10
183.5
20
-22.074999999999999
10
183.5
20
-35.075000000000003
42
0.41421356237314444
10
184.00000000000003
20
-35.57500000000001
10
197.00000000000003
20
-35.575000000000017
42
0.41421356237310025
10
197.50000000000003
20
-35.075000000000003
0
LWPOLYLINE
5
167
100
AcDbEntity
8
0
100
AcDbPolyline
90
8
70
1
43
0.0
10
269.72500000000002
20
-73.674999999999997
10
282.72500000000002
20
-73.675000000000011
42
0.41421356237310025
10
283.22500000000002
20
-73.174999999999983
10
283.22500000000002
20
-60.17499999999999
42
0.41421356237314705
10
282.72500000000002
20
-59.674999999999983
10
269.72500000000002
20
-59.675000000000004
42
0.41421356237312623
10
269.22500000000002
20
-60.17499999999999
10
269.22500000000002
20
-73.174999999999983
42
0.41421356237312623
0
LWPOLYLINE
5
168
100
AcDbEntity
8
0
100
AcDbPolyline
90
8
70
1
43
0.0
10
243.53125000000003
20
-73.674999999999983
10
256.53125
20
-73.674999999999997
42
0.41421356237310025
10
257.03125000000006
20
-73.174999999999983
10
257.03125
20
-60.174999999999983
42
0.41421356237314705
10
256.53125
20
-59.674999999999976
10
243.53125000000006
20
-59.674999999999997
42
0.41421356237312623
10
243.03125
20
-60.174999999999983
10
243.03125
20
-73.174999999999983
42
0.41421356237312623
0
CIRCLE
5
169
100
AcDbEntity
8
0
100
AcDbCircle
10
260.46249999999998
20
-28.675000000000001
30
0
40
2.2500000000000089
210
0
220
0
230
1
0
CIRCLE
5
170
100
AcDbEntity
8
0
100
AcDbCircle
10
25.577500000000004
20
-28.675000000000001
30
0
40
2.25
210
0
220
0
230
1
0
ENDSEC
0
SECTION
2
OBJECTS
0
DICTIONARY
5
C
100
AcDbDictionary
3
ACAD_GROUP
350
D
3
ACAD_MLINESTYLE
350
17
0
DICTIONARY
5
D
100
AcDbDictionary
0
DICTIONARY
5
1A
330
C
100
AcDbDictionary
0
DICTIONARY
5
17
100
AcDbDictionary
0
ENDSEC
0
EOF
